<svg width="24" height="24" viewBox="0 0 24 24" fill="none" xmlns="http://www.w3.org/2000/svg">
<path fill-rule="evenodd" clip-rule="evenodd" d="M0.757812 3.172L4.00081 6.414V18C4.00081 18.5523 4.44853 19 5.00081 19H17.0008V17H6.00081V15H18.2568C18.6986 15 19.088 14.7102 19.2148 14.287L21.6148 6.287C21.7055 5.98425 21.6478 5.65643 21.459 5.4029C21.2703 5.14937 20.9729 4.99998 20.6568 5H5.41481L2.17281 1.757L0.757812 3.172ZM6.00081 13V7H19.3128L17.5128 13H6.00081ZM5.50081 23C4.67239 23 4.00081 22.3284 4.00081 21.5C4.00081 20.6716 4.67239 20 5.50081 20C6.32924 20 7.00081 20.6716 7.00081 21.5C7.00081 22.3284 6.32924 23 5.50081 23ZM16.0008 21.5C16.0008 22.3284 16.6724 23 17.5008 23C18.3292 23 19.0008 22.3284 19.0008 21.5C19.0008 20.6716 18.3292 20 17.5008 20C16.6724 20 16.0008 20.6716 16.0008 21.5Z" fill="black"/>
</svg>
