<svg width="20" height="20" viewBox="0 0 20 20" fill="none" xmlns="http://www.w3.org/2000/svg">
<path fill-rule="evenodd" clip-rule="evenodd" d="M1.86852 5.71166L9.57435 1.09166C9.83825 0.933314 10.1679 0.933314 10.4318 1.09166L18.1302 5.71249C18.2558 5.78778 18.3327 5.92351 18.3327 6.06999V16.6667C18.3327 17.1269 17.9596 17.5 17.4993 17.5H2.49935C2.03911 17.5 1.66602 17.1269 1.66602 16.6667V6.06916C1.66598 5.92268 1.74287 5.78695 1.86852 5.71166ZM3.33268 6.77749V15.8333H16.666V6.77666L10.0027 2.77666L3.33268 6.77666V6.77749ZM14.4627 7.69583L10.0493 11.415L5.52935 7.68999L4.46935 8.97666L10.061 13.585L15.536 8.97083L14.4627 7.69583Z" fill="black"/>
</svg>
