<svg width="44" height="44" viewBox="0 0 44 44" fill="none" xmlns="http://www.w3.org/2000/svg">
<path fill-rule="evenodd" clip-rule="evenodd" d="M17.8581 11.0458H24.7618C28.4385 11.0458 31.5737 14.0088 31.5738 17.8577C31.5738 21.6139 28.518 24.6697 24.7618 24.6697H19.1472V27.6146H24.7618C25.4737 27.6146 26.0509 28.1917 26.0509 28.9036C26.0509 29.6155 25.4737 30.1927 24.7618 30.1927H19.1472V33.0458C19.1472 33.7577 18.57 34.3349 17.8581 34.3349C17.1462 34.3349 16.569 33.7577 16.569 33.0458V30.1927H15.0967C14.3848 30.1927 13.8076 29.6155 13.8076 28.9036C13.8076 28.1917 14.3848 27.6146 15.0967 27.6146H16.569V24.6697H15.0967C14.3848 24.6697 13.8076 24.0926 13.8076 23.3807C13.8076 22.6688 14.3848 22.0916 15.0967 22.0916H16.569V12.3349C16.569 11.623 17.1462 11.0458 17.8581 11.0458ZM19.1472 22.0916H24.7618C27.0964 22.0916 28.9956 20.1924 28.9957 17.8578C28.9957 15.4957 27.0823 13.6239 24.7618 13.6239H19.1472V22.0916Z" fill="#EA2021"/>
<path fill-rule="evenodd" clip-rule="evenodd" d="M0 22C0 9.86915 9.86915 0 22 0C34.1309 0 44 9.86915 44 22C44 34.1309 34.1309 44 22 44C9.86915 44 0 34.1309 0 22ZM2.57812 22C2.57812 32.7093 11.2907 41.4219 22 41.4219C32.7093 41.4219 41.4219 32.7093 41.4219 22C41.4219 11.2907 32.7093 2.57812 22 2.57812C11.2907 2.57812 2.57812 11.2907 2.57812 22Z" fill="#EA2021"/>
</svg>
