<svg width="39" height="44" viewBox="0 0 39 44" fill="none" xmlns="http://www.w3.org/2000/svg">
<path fill-rule="evenodd" clip-rule="evenodd" d="M19.5592 0.0302271L36.9997 3.86308C37.5921 3.99327 38.014 4.51809 38.014 5.12454V27.0222C38.014 37.5983 20.2061 43.5989 19.448 43.8492C19.1851 43.936 18.9011 43.936 18.6383 43.8492C17.8802 43.5988 0.0722656 37.5983 0.0722656 27.0222V5.12462C0.0722656 4.51542 0.497975 3.98897 1.09366 3.86161L19.0119 0.0286772C19.1923 -0.0100707 19.379 -0.00946793 19.5592 0.0302271ZM19.0422 41.2543C21.6035 40.3303 35.4308 34.971 35.4308 27.0222V6.16306L19.2783 2.61324L2.65546 6.16909V27.0222C2.65546 33.695 12.7642 38.9989 19.0422 41.2543Z" fill="#EA2021"/>
<path fill-rule="evenodd" clip-rule="evenodd" d="M7.43016 8.47681L18.9425 6.16753C19.1124 6.13343 19.2875 6.13386 19.4572 6.16882L30.6627 8.47819C31.2629 8.60184 31.6936 9.13036 31.6936 9.74318V25.6281C31.6936 31.1251 24.5346 34.7875 19.3736 36.1568C19.1571 36.2142 18.9288 36.2141 18.7126 36.1568C13.5552 34.7884 6.39258 31.1222 6.39258 25.6281V9.74318C6.39258 9.12778 6.82681 8.59779 7.43016 8.47681ZM29.1104 25.6282V10.7957L19.1931 8.75192L8.97577 10.8015V25.6282C8.97577 29.5813 15.2463 32.4324 19.0425 33.5648C22.8225 32.4342 29.1104 29.5888 29.1104 25.6282Z" fill="#EA2021"/>
</svg>
