<svg width="47" height="45" viewBox="0 0 47 45" fill="none" xmlns="http://www.w3.org/2000/svg">
<path fill-rule="evenodd" clip-rule="evenodd" d="M41.389 19.045L45.1628 19.5254C45.8437 19.6121 46.3539 20.1915 46.3539 20.8778V29.5814C46.3539 30.3344 45.7435 30.9448 44.9906 30.9448H41.7135C40.6666 33.2307 38.9005 35.0652 36.4478 36.4142L35.5362 42.7856C35.4401 43.4571 34.865 43.9558 34.1866 43.9558H27.3498C26.5969 43.9558 25.9865 43.3454 25.9865 42.5924V39.1195C23.9804 39.2799 21.771 39.3141 20.5867 39.2709V42.5924C20.5867 43.3454 19.9763 43.9558 19.2233 43.9558H12.3866C11.7075 43.9558 11.132 43.4561 11.0367 42.7838L10.0359 35.7251C8.30726 34.3393 7.05261 32.6491 6.24496 30.8005H4.30192C1.92978 30.8005 0 28.8707 0 26.4986V25.8457C0 25.0927 0.610417 24.4823 1.36335 24.4823C2.11628 24.4823 2.7267 25.0927 2.7267 25.8457V26.4986C2.7267 27.3673 3.43337 28.0738 4.30192 28.0738H5.39469C5.08539 26.5069 5.0513 24.8833 5.28162 23.2763C2.08247 20.9378 0 17.1582 0 12.9008C0 5.81797 5.76234 0.0556329 12.8453 0.055542C19.453 0.055542 24.9107 5.07094 25.6133 11.4947C27.2133 11.6106 28.7075 11.8007 30.0776 12.0627C32.0575 8.85779 35.3694 7.52043 39.2486 7.71875C40.0748 7.76092 40.6749 8.52522 40.5176 9.33905L39.1916 16.199C40.0844 17.0384 40.8204 17.9914 41.389 19.045ZM36.7606 14.4082L37.5218 10.4703C35.5547 10.6558 34.0148 11.4235 32.9176 12.7629C34.3497 13.2051 35.6335 13.7548 36.7606 14.4082ZM2.7267 12.9008C2.7267 7.32147 7.26584 2.78233 12.8453 2.78233C20.4199 2.78233 25.3095 10.8471 21.8347 17.5497C21.6761 17.8558 21.6395 18.2106 21.7313 18.5417L22.9586 22.9713L18.4705 21.7829C18.1428 21.696 17.7949 21.7344 17.4941 21.8904C10.7794 25.3709 2.7267 20.4642 2.7267 12.9008ZM40.7978 28.2181H43.6272V22.0786L40.3201 21.6578C39.8502 21.598 39.445 21.2985 39.2499 20.8668C37.0706 16.044 30.9187 14.6376 25.6216 14.2294C25.4768 15.6192 25.0977 17.0182 24.4972 18.3125L26.2212 24.534C26.5076 25.5671 25.5555 26.481 24.5584 26.2161L18.2649 24.5495C15.0974 26.0226 11.3074 26.1874 7.87635 24.749C7.69975 28.4469 9.19589 31.7384 12.1152 33.8848C12.4105 34.1019 12.606 34.4289 12.6574 34.7918L13.5702 41.2292H17.8598V37.8126C17.8598 37.0051 18.5587 36.3751 19.3592 36.4561C21.5774 36.6786 25.0152 36.5154 27.1926 36.2629C28.0024 36.1691 28.7131 36.8027 28.7131 37.6171V41.2291H33.0043L33.8475 35.3352C33.9113 34.8895 34.1912 34.504 34.5952 34.3051C37.095 33.075 38.7042 31.3792 39.5146 29.121C39.7089 28.5794 40.2224 28.2181 40.7978 28.2181Z" fill="#EA2021"/>
<path d="M34.0841 20.8217C33.3311 20.8217 32.7207 21.4321 32.7207 22.1851V22.5857C32.7207 23.3386 33.3311 23.9491 34.0841 23.9491C34.837 23.9491 35.4474 23.3386 35.4474 22.5857V22.1851C35.4474 21.4321 34.837 20.8217 34.0841 20.8217Z" fill="#EA2021"/>
<path d="M10.0422 17.656L17.6008 10.0974C18.1332 9.56511 18.1332 8.70183 17.6008 8.1694C17.0685 7.63706 16.2052 7.63706 15.6728 8.1694L8.11417 15.728C7.58174 16.2603 7.58174 17.1236 8.11417 17.656C8.64669 18.1885 9.50988 18.1884 10.0422 17.656Z" fill="#EA2021"/>
<path d="M16.0169 17.4349C16.7699 17.4349 17.3804 16.8244 17.3804 16.0714C17.3804 15.3183 16.7699 14.7078 16.0169 14.7078C15.2638 14.7078 14.6533 15.3183 14.6533 16.0714C14.6533 16.8244 15.2638 17.4349 16.0169 17.4349Z" fill="#EA2021"/>
<path d="M9.67281 11.0913C10.4252 11.0913 11.0351 10.4814 11.0351 9.72905C11.0351 8.97675 10.4252 8.36679 9.67281 8.36679C8.92051 8.36679 8.31055 8.97666 8.31055 9.72905C8.31055 10.4814 8.92051 11.0913 9.67281 11.0913Z" fill="#EA2021"/>
</svg>
