<svg width="34" height="34" viewBox="0 0 34 34" fill="none" xmlns="http://www.w3.org/2000/svg">
<path d="M24.9493 25.1503C24.7542 25.1224 24.5564 25.0955 24.3564 25.0694C23.9856 25.0214 23.6457 25.2829 23.5975 25.6539C23.5494 26.0248 23.8111 26.3646 24.1819 26.4128C24.3762 26.4379 24.5681 26.4641 24.7575 26.4913C24.79 26.4958 24.8224 26.4982 24.8542 26.4982C25.1857 26.4982 25.4755 26.2544 25.5239 25.9167C25.5769 25.5465 25.3196 25.2034 24.9493 25.1503Z" fill="white"/>
<path fill-rule="evenodd" clip-rule="evenodd" d="M26.7469 26.1307C26.8261 25.7652 27.1868 25.5329 27.5522 25.6121C31.5899 26.4864 33.637 27.7291 33.637 29.3057C33.637 30.761 31.8735 31.9378 28.3956 32.8034C25.295 33.5751 21.1835 34 16.8185 34C12.4535 34 8.34202 33.5751 5.24138 32.8034C1.76348 31.9378 0 30.761 0 29.3057C0 28.0674 1.26192 27.0256 3.75082 26.2092C5.65682 25.584 8.16545 25.1214 11.0614 24.8577C11.0499 24.8445 11.0385 24.8313 11.0271 24.8181C10.9826 24.7667 10.9382 24.7153 10.8937 24.6631C9.28479 22.7725 8.00109 20.8231 7.07831 18.8691C5.91368 16.4027 5.32312 13.9219 5.32312 11.4954C5.32312 5.15684 10.48 0 16.8185 0C23.1571 0 28.3139 5.15684 28.3139 11.4955C28.3139 13.922 27.7233 16.4029 26.5587 18.8691C25.6359 20.8231 24.3522 22.7726 22.7433 24.6631C20.0145 27.8698 17.3216 29.7799 17.2083 29.8596C17.0914 29.9418 16.9549 29.983 16.8185 29.983C16.6821 29.983 16.5456 29.9418 16.4287 29.8596C16.3339 29.7928 14.4307 28.4425 12.2124 26.1232C9.02255 26.354 6.17359 26.8401 4.17297 27.4964C2.09273 28.1787 1.35462 28.8975 1.35462 29.3057C1.35462 29.7271 2.24214 30.6611 5.5685 31.4889C8.56528 32.2347 12.5606 32.6454 16.8185 32.6454C21.0764 32.6454 25.0717 32.2347 28.0685 31.4889C31.3949 30.6611 32.2824 29.7271 32.2824 29.3057C32.2824 28.8618 31.2338 27.7954 27.2655 26.936C26.8999 26.8569 26.6678 26.4963 26.7469 26.1307ZM16.8185 1.35455C11.2268 1.35455 6.67768 5.90371 6.67768 11.4954C6.67768 16.5566 9.53135 20.9722 11.9252 23.7853C13.95 26.1645 15.9866 27.8228 16.8182 28.4611C17.6536 27.8194 19.7058 26.1475 21.7332 23.76C24.1174 20.9523 26.9593 16.5454 26.9593 11.4954C26.9593 5.90371 22.4102 1.35455 16.8185 1.35455Z" fill="white"/>
<path fill-rule="evenodd" clip-rule="evenodd" d="M11.3926 11.4954C11.3926 8.50311 13.827 6.06873 16.8193 6.06873C19.8116 6.06873 22.246 8.50305 22.246 11.4954C22.246 14.4877 19.8116 16.9221 16.8193 16.9221C13.827 16.9221 11.3926 14.4878 11.3926 11.4954ZM12.7471 11.4954C12.7471 13.7408 14.574 15.5675 16.8193 15.5675C19.0646 15.5675 20.8915 13.7408 20.8915 11.4954C20.8915 9.24998 19.0646 7.42328 16.8193 7.42328C14.5739 7.42328 12.7471 9.24998 12.7471 11.4954Z" fill="white"/>
</svg>
