<svg width="19" height="34" viewBox="0 0 19 34" fill="none" xmlns="http://www.w3.org/2000/svg">
<path fill-rule="evenodd" clip-rule="evenodd" d="M0.642501 0H9.86207C10.2167 0 10.5046 0.287875 10.5046 0.642501V33.3575C10.5046 33.7121 10.2167 34 9.86207 34H0.642501C0.287875 34 0 33.7121 0 33.3575V0.642501C0 0.287875 0.287875 0 0.642501 0ZM7.6327 4.33671H9.21957V1.285H1.285V32.696H9.21957V29.6443H7.6327C7.27808 29.6443 6.9902 29.3564 6.9902 29.0018C6.9902 28.6471 7.27808 28.3593 7.6327 28.3593H9.21957V26.2134H7.6327C7.27808 26.2134 6.9902 25.9255 6.9902 25.5709C6.9902 25.2163 7.27808 24.9284 7.6327 24.9284H9.21957V22.7825H6.18714C5.83251 22.7825 5.54463 22.4946 5.54463 22.14C5.54463 21.7854 5.83251 21.4975 6.18714 21.4975H9.21957V19.3709H7.6327C7.27808 19.3709 6.9902 19.083 6.9902 18.7284C6.9902 18.3738 7.27808 18.0859 7.6327 18.0859H9.21957V15.9336H7.6327C7.27808 15.9336 6.9902 15.6457 6.9902 15.2911C6.9902 14.9365 7.27808 14.6486 7.6327 14.6486H9.21957V12.5027H6.18714C5.83251 12.5027 5.54463 12.2149 5.54463 11.8602C5.54463 11.5056 5.83251 11.2177 6.18714 11.2177H9.21957V9.05258H7.6327C7.27808 9.05258 6.9902 8.76471 6.9902 8.41008C6.9902 8.05546 7.27808 7.76758 7.6327 7.76758H9.21957V5.62171H7.6327C7.27808 5.62171 6.9902 5.33383 6.9902 4.97921C6.9902 4.62458 7.27808 4.33671 7.6327 4.33671Z" fill="white"/>
<path fill-rule="evenodd" clip-rule="evenodd" d="M17.8475 6.30276C18.2021 6.30276 18.49 6.01488 18.49 5.66026C18.49 5.50726 18.4354 5.35885 18.3358 5.24255L16.3505 1.78598C16.1725 1.47907 15.7794 1.37493 15.4724 1.55293C15.3752 1.60867 15.2949 1.68964 15.2392 1.78598L13.1896 5.33912C13.0123 5.64603 13.1176 6.03943 13.4247 6.21651C13.5232 6.27317 13.6349 6.30344 13.7486 6.30276H15.1557V27.6973H13.7486C13.394 27.6959 13.1048 27.9826 13.1036 28.3372C13.1029 28.451 13.133 28.5627 13.1896 28.6609L15.2392 32.214C15.4172 32.521 15.8103 32.6251 16.1175 32.4471C16.2145 32.3914 16.2948 32.3104 16.3505 32.214L18.4001 28.6609C18.5774 28.354 18.4721 27.9606 18.1649 27.7835C18.0665 27.7269 17.9548 27.6966 17.8411 27.6973H16.434V6.30276H17.8475ZM16.7361 28.9823L15.7982 30.6077L14.86 28.9823H16.7361ZM15.7982 3.39235L14.86 5.01776H16.7361L15.7982 3.39235Z" fill="white"/>
</svg>
