<svg width="34" height="34" viewBox="0 0 34 34" fill="none" xmlns="http://www.w3.org/2000/svg">
<path d="M0.0762654 3.11641L2.342 7.08121C2.41843 7.21519 2.54634 7.31212 2.69593 7.34963L4.80975 7.87809L12.0597 15.128L12.8608 14.3272L5.49735 6.96401C5.42488 6.89132 5.33401 6.83982 5.23452 6.81489L3.20342 6.30531L1.27437 2.92768L2.92824 1.27381L6.30727 3.20472L6.81708 5.23582C6.84178 5.33554 6.89351 5.42665 6.96597 5.49911L14.3294 12.8625L15.1302 12.0614L7.88028 4.81152L7.35183 2.69887C7.31431 2.54905 7.21738 2.42089 7.08341 2.34423L3.11837 0.078733C2.89725 -0.0470894 2.61904 -0.00980866 2.4387 0.169838L0.173195 2.43557C-0.00901423 2.61475 -0.048625 2.89343 0.0762654 3.11641Z" fill="white"/>
<path d="M23.6252 11.163L11.1644 23.6241L10.3633 22.823L22.8244 10.3622L23.6252 11.163Z" fill="white"/>
<path fill-rule="evenodd" clip-rule="evenodd" d="M8.49596 23.7902C8.69495 23.7902 8.87902 23.8943 8.98154 24.0649L10.6806 26.8968C10.7885 27.0763 10.7885 27.3006 10.6806 27.4803L8.98154 30.3122C8.87902 30.4825 8.69495 30.5869 8.49596 30.5869H5.09759C4.89884 30.5869 4.71453 30.4825 4.61224 30.3122L2.91294 27.4803C2.80506 27.3006 2.80506 27.0763 2.91294 26.8968L4.61224 24.0649C4.71453 23.8943 4.89884 23.7902 5.09759 23.7902H8.49596ZM5.41821 29.4541H8.17558L9.53493 27.1886L8.17558 24.9228H5.41821L4.05886 27.1886L5.41821 29.4541Z" fill="white"/>
<path fill-rule="evenodd" clip-rule="evenodd" d="M33.9839 6.84402C33.9713 10.5849 30.9283 13.6074 27.1874 13.5949C26.7417 13.5935 26.2971 13.5473 25.8605 13.4572L22.8908 16.4268L24.1896 17.7256C24.4107 17.9467 24.4107 18.3053 24.1896 18.5264L23.9062 18.8097L23.9057 18.8104L23.9051 18.8109C23.6576 19.0588 23.6583 19.4605 23.9062 19.708C24.1549 19.9549 24.5561 19.9549 24.8047 19.708L25.0878 19.4249C25.3089 19.2037 25.6675 19.2037 25.8887 19.4249L32.6453 26.1813C32.6551 26.1911 32.6649 26.2009 32.6744 26.2106C34.4516 28.0039 34.4385 30.8985 32.6453 32.6756C30.8519 34.4527 27.9575 34.4397 26.1804 32.6462L19.4237 25.8896C19.2026 25.6684 19.2026 25.3099 19.4237 25.0887L19.7068 24.8056L19.708 24.8045C19.9554 24.5563 19.955 24.1546 19.7068 23.9072C19.4584 23.6604 19.057 23.6604 18.8086 23.9072L18.5255 24.1905C18.3041 24.4116 17.9458 24.4116 17.7244 24.1905L16.4256 22.8917L13.456 25.8614C13.5462 26.298 13.5923 26.7426 13.5937 27.1886C13.5937 30.9423 10.5507 33.9853 6.79697 33.9853C3.04304 33.9853 0 30.9423 0 27.1886C0 23.4346 3.04304 20.3916 6.79697 20.3916C7.24271 20.3932 7.68728 20.4391 8.12393 20.5293L20.5284 8.12508C20.438 7.68843 20.3921 7.24386 20.3907 6.79789C20.3888 6.23006 20.4585 5.66432 20.5981 5.11397C21.5168 1.48632 25.2022 -0.709744 28.8301 0.208992C28.9305 0.23369 29.0223 0.285417 29.0953 0.358348C29.3166 0.579469 29.3168 0.938063 29.0957 1.15942L25.5699 4.68594L26.5029 7.48269L29.3003 8.41494L32.8261 4.89145C32.8988 4.81898 32.9897 4.76749 33.0894 4.74256C33.393 4.66706 33.7004 4.85184 33.7758 5.15544C33.9159 5.70743 33.9858 6.27456 33.9839 6.84402ZM28.2082 32.6329C28.5934 32.7776 29.0014 32.852 29.4128 32.8527C29.8271 32.8531 30.2379 32.7786 30.6254 32.6329C32.4011 31.9654 33.2994 29.9849 32.6318 28.2091L28.2082 32.6329ZM22.9961 18.1317C22.3689 18.8799 22.4672 19.995 23.2154 20.622C23.8729 21.1731 24.8313 21.1726 25.4881 20.6204L31.8445 26.9824C31.9134 27.0516 31.978 27.1245 32.0404 27.1986L27.1977 32.0414C27.1233 31.9791 27.0504 31.9146 26.9812 31.8454L20.62 25.4837C21.2472 24.7355 21.1489 23.6203 20.4007 22.9933C19.7432 22.442 18.7846 22.4427 18.1277 22.9947L17.2216 22.0886L22.0897 17.2276L22.9961 18.1317ZM12.4343 25.2814L25.2833 12.435V12.4347H25.2803C25.421 12.294 25.6254 12.2376 25.8185 12.2858C26.2845 12.4051 26.764 12.4643 27.2452 12.462C30.3574 12.4459 32.8674 9.91013 32.8515 6.79789C32.8515 6.69141 32.848 6.58446 32.8413 6.47634L29.8535 9.46416C29.7018 9.61561 29.4774 9.6685 29.2742 9.6007L25.8756 8.46783C25.7064 8.41168 25.5736 8.27887 25.517 8.10994L24.3844 4.71134C24.3166 4.50792 24.3697 4.28354 24.5214 4.13209L27.5092 1.14311C26.922 1.10652 26.3325 1.16245 25.7626 1.30807C22.7466 2.08002 20.9273 5.15055 21.699 8.16656C21.7475 8.35949 21.6908 8.56383 21.5501 8.70457L8.70411 21.5513C8.56291 21.6913 8.35903 21.7479 8.16587 21.7006C7.24271 21.4657 6.27551 21.4657 5.35234 21.7006C2.30045 22.4777 0.456456 25.5815 1.23329 28.6332C2.01036 31.6851 5.11421 33.5291 8.16587 32.752C11.2178 31.9752 13.0618 28.8713 12.2847 25.8197C12.2367 25.6265 12.2933 25.4222 12.4343 25.2814Z" fill="white"/>
<path d="M29.2892 28.4871L28.4881 29.2882L22.8242 23.6243L23.6251 22.8232L29.2892 28.4871Z" fill="white"/>
</svg>
