<svg width="18" height="18" viewBox="0 0 18 18" fill="none" xmlns="http://www.w3.org/2000/svg">
<path fill-rule="evenodd" clip-rule="evenodd" d="M1.68225 5.14049L8.6175 0.982493C8.85501 0.839983 9.15174 0.839983 9.38925 0.982493L16.3177 5.14124C16.4308 5.209 16.5 5.33116 16.5 5.46299V15C16.5 15.4142 16.1642 15.75 15.75 15.75H2.25C1.83579 15.75 1.5 15.4142 1.5 15V5.46224C1.49997 5.33041 1.56917 5.20825 1.68225 5.14049ZM3 6.09974V14.25H15V6.09899L9.003 2.49899L3 6.09899V6.09974ZM13.017 6.92624L9.045 10.2735L4.977 6.92099L4.023 8.07899L9.0555 12.2265L13.983 8.07374L13.017 6.92624Z" fill="black"/>
</svg>
