<svg width="18" height="18" viewBox="0 0 18 18" fill="none" xmlns="http://www.w3.org/2000/svg">
<path fill-rule="evenodd" clip-rule="evenodd" d="M4.227 13.023L9 17.796L13.773 13.023C16.409 10.387 16.409 6.11311 13.773 3.47708C11.1369 0.841055 6.86308 0.841055 4.22704 3.47708C1.591 6.11311 1.59098 10.387 4.227 13.023ZM12.7125 11.9625L9 15.675L5.2875 11.9625C3.2374 9.91219 3.23751 6.58818 5.28775 4.53801C7.33799 2.48784 10.662 2.48784 12.7122 4.53801C14.7625 6.58818 14.7626 9.91219 12.7125 11.9625ZM9 9.75C9.82843 9.75 10.5 9.07843 10.5 8.25C10.5 7.42158 9.82843 6.75 9 6.75C8.17157 6.75 7.5 7.42158 7.5 8.25C7.5 9.07843 8.17157 9.75 9 9.75ZM6 8.25C6 9.90686 7.34315 11.25 9 11.25C10.6569 11.25 12 9.90686 12 8.25C12 6.59315 10.6569 5.25 9 5.25C7.34315 5.25 6 6.59315 6 8.25Z" fill="black"/>
</svg>
