<svg width="40" height="44" viewBox="0 0 40 44" fill="none" xmlns="http://www.w3.org/2000/svg">
<path fill-rule="evenodd" clip-rule="evenodd" d="M40 15.4688H36.9697V11.0675L25.8195 0H3.0303V15.4688H0V37.4688H3.0303V44H36.9697V37.4688H40V15.4688ZM26.5801 4.40128L32.5355 10.3125H26.5801V4.40128ZM23.9827 2.57812H5.62771V15.4688H34.3723V12.8906H23.9827V2.57812ZM34.3723 41.4219H5.62771V37.4688H34.3723V41.4219ZM2.5974 34.8906H37.4026V18.0469H2.5974V34.8906Z" fill="#EA2021"/>
<path fill-rule="evenodd" clip-rule="evenodd" d="M10.1731 28.6172H8.91772V32.4844H6.32031V20.7969H10.1731C12.3454 20.7969 14.1125 22.5509 14.1125 24.707C14.1125 26.8632 12.3454 28.6172 10.1731 28.6172ZM10.1731 23.375H8.91772V26.0391H10.1731C10.9131 26.0391 11.5151 25.4415 11.5151 24.707C11.5151 23.9725 10.9131 23.375 10.1731 23.375Z" fill="#EA2021"/>
<path fill-rule="evenodd" clip-rule="evenodd" d="M24.5022 25.9531V27.3281C24.5022 30.1714 22.1719 32.4844 19.3074 32.4844H16.71V20.7969H19.3074C22.1719 20.7969 24.5022 23.1098 24.5022 25.9531ZM21.9048 25.9531C21.9048 24.5315 20.7397 23.375 19.3074 23.375V29.9062C20.7397 29.9062 21.9048 28.7498 21.9048 27.3281V25.9531Z" fill="#EA2021"/>
<path d="M29.8699 28.918H32.4673V26.3398H29.8699V23.375H33.766V20.7969H27.2725V32.4844H29.8699V28.918Z" fill="#EA2021"/>
</svg>
