<svg width="44" height="44" viewBox="0 0 44 44" fill="none" xmlns="http://www.w3.org/2000/svg">
<path d="M32.2861 32.5475C32.0336 32.5114 31.7776 32.4765 31.5188 32.4428C31.039 32.3806 30.5991 32.7191 30.5367 33.1991C30.4744 33.6792 30.8131 34.1188 31.293 34.1812C31.5444 34.2138 31.7927 34.2476 32.0378 34.2828C32.0799 34.2887 32.1218 34.2917 32.1631 34.2917C32.5921 34.2917 32.9671 33.9762 33.0296 33.5393C33.0982 33.0602 32.7653 32.6161 32.2861 32.5475Z" fill="white"/>
<path fill-rule="evenodd" clip-rule="evenodd" d="M34.6136 33.8162C34.7161 33.3431 35.1829 33.0426 35.6558 33.1451C40.881 34.2765 43.5303 35.8848 43.5303 37.925C43.5303 39.8084 41.2481 41.3313 36.7473 42.4515C32.7347 43.4501 27.414 44 21.7651 44C16.1163 44 10.7956 43.4501 6.78296 42.4515C2.28216 41.3313 0 39.8084 0 37.925C0 36.3225 1.63307 34.9742 4.85401 33.9178C7.32059 33.1087 10.567 32.5101 14.3147 32.1688C14.2998 32.1516 14.2849 32.1344 14.27 32.1171C14.2126 32.0508 14.1551 31.9844 14.0977 31.9169C12.0156 29.4703 10.3544 26.9476 9.16016 24.4188C7.65299 21.2271 6.88875 18.0166 6.88875 14.8764C6.88875 6.67356 13.5623 0 21.7651 0C29.968 0 36.6415 6.67356 36.6415 14.8765C36.6415 18.0167 35.8773 21.2272 34.3701 24.4189C33.1759 26.9476 31.5147 29.4704 29.4326 31.917C25.9011 36.0668 22.4162 38.5387 22.2696 38.6418C22.1182 38.7483 21.9416 38.8015 21.7651 38.8015C21.5886 38.8015 21.4119 38.7483 21.2607 38.6418C21.138 38.5553 18.6751 36.808 15.8043 33.8065C11.6762 34.1052 7.98935 34.7343 5.40031 35.5835C2.70823 36.4665 1.75304 37.3967 1.75304 37.925C1.75304 38.4704 2.90159 39.6791 7.20629 40.7504C11.0845 41.7155 16.2549 42.247 21.7651 42.247C27.2754 42.247 32.4458 41.7155 36.324 40.7504C40.6287 39.6791 41.7772 38.4704 41.7772 37.925C41.7772 37.3506 40.4203 35.9705 35.2848 34.8584C34.8116 34.756 34.5112 34.2893 34.6136 33.8162ZM21.7651 1.75295C14.5289 1.75295 8.6417 7.6401 8.6417 14.8764C8.6417 21.4262 12.3347 27.1404 15.4327 30.7809C18.0529 33.86 20.6885 36.0059 21.7648 36.832C22.8459 36.0015 25.5016 33.838 28.1254 30.7482C31.2108 27.1147 34.8886 21.4118 34.8886 14.8764C34.8886 7.6401 29.0014 1.75295 21.7651 1.75295Z" fill="white"/>
<path fill-rule="evenodd" clip-rule="evenodd" d="M14.7422 14.8765C14.7422 11.004 17.8927 7.85364 21.765 7.85364C25.6373 7.85364 28.7878 11.0039 28.7878 14.8764C28.7878 18.7488 25.6373 21.8992 21.765 21.8992C17.8927 21.8992 14.7422 18.7489 14.7422 14.8765ZM16.4951 14.8764C16.4951 17.7823 18.8593 20.1462 21.765 20.1462C24.6707 20.1462 27.0349 17.7823 27.0349 14.8765C27.0349 11.9706 24.6707 9.60659 21.765 9.60659C18.8592 9.60659 16.4951 11.9706 16.4951 14.8764Z" fill="white"/>
</svg>
