<svg width="24" height="44" viewBox="0 0 24 44" fill="none" xmlns="http://www.w3.org/2000/svg">
<path fill-rule="evenodd" clip-rule="evenodd" d="M0.831471 0H12.7627C13.2216 0 13.5942 0.372544 13.5942 0.831471V43.1685C13.5942 43.6275 13.2216 44 12.7627 44H0.831471C0.372544 44 0 43.6275 0 43.1685V0.831471C0 0.372544 0.372544 0 0.831471 0ZM9.87762 5.61221H11.9312V1.66294H1.66294V42.3124H11.9312V38.3632H9.87762C9.41869 38.3632 9.04615 37.9906 9.04615 37.5317C9.04615 37.0728 9.41869 36.7002 9.87762 36.7002H11.9312V33.9232H9.87762C9.41869 33.9232 9.04615 33.5507 9.04615 33.0917C9.04615 32.6328 9.41869 32.2603 9.87762 32.2603H11.9312V29.4832H8.00688C7.54795 29.4832 7.17541 29.1107 7.17541 28.6518C7.17541 28.1928 7.54795 27.8203 8.00688 27.8203H11.9312V25.0682H9.87762C9.41869 25.0682 9.04615 24.6957 9.04615 24.2367C9.04615 23.7778 9.41869 23.4053 9.87762 23.4053H11.9312V20.62H9.87762C9.41869 20.62 9.04615 20.2474 9.04615 19.7885C9.04615 19.3296 9.41869 18.957 9.87762 18.957H11.9312V16.18H8.00688C7.54795 16.18 7.17541 15.8075 7.17541 15.3485C7.17541 14.8896 7.54795 14.5171 8.00688 14.5171H11.9312V11.7151H9.87762C9.41869 11.7151 9.04615 11.3426 9.04615 10.8836C9.04615 10.4247 9.41869 10.0522 9.87762 10.0522H11.9312V7.27515H9.87762C9.41869 7.27515 9.04615 6.90261 9.04615 6.44368C9.04615 5.98475 9.41869 5.61221 9.87762 5.61221Z" fill="white"/>
<path fill-rule="evenodd" clip-rule="evenodd" d="M23.0972 8.15651C23.5562 8.15651 23.9287 7.78396 23.9287 7.32503C23.9287 7.12704 23.8581 6.93498 23.7292 6.78447L21.16 2.31127C20.9297 1.91409 20.4209 1.77932 20.0237 2.00967C19.8978 2.08181 19.7939 2.18659 19.7218 2.31127L17.0695 6.90945C16.84 7.30663 16.9762 7.81572 17.3737 8.04489C17.5011 8.11821 17.6456 8.1574 17.7929 8.15651H19.6137V35.8435H17.7929C17.3339 35.8417 16.9596 36.2128 16.9581 36.6717C16.9572 36.819 16.9961 36.9635 17.0695 37.0906L19.7218 41.6888C19.9521 42.0859 20.4609 42.2207 20.8584 41.9904C20.984 41.9182 21.0879 41.8134 21.16 41.6888L23.8124 37.0906C24.0418 36.6934 23.9056 36.1843 23.5081 35.9551C23.3807 35.8818 23.2362 35.8426 23.0889 35.8435H21.2681V8.15651H23.0972ZM21.659 37.5065L20.4452 39.6099L19.2311 37.5065H21.659ZM20.4452 4.3901L19.2311 6.49356H21.659L20.4452 4.3901Z" fill="white"/>
</svg>
