<svg width="44" height="44" viewBox="0 0 44 44" fill="none" xmlns="http://www.w3.org/2000/svg">
<path d="M0.0965709 4.03302L3.0287 9.16395C3.1276 9.33733 3.29314 9.46277 3.48673 9.51131L6.22226 10.1952L15.6045 19.5775L16.6412 18.5411L7.11209 9.01227C7.01831 8.91819 6.90071 8.85156 6.77195 8.81929L4.14347 8.15983L1.64706 3.78878L3.78736 1.64848L8.16022 4.14731L8.81998 6.77579C8.85194 6.90484 8.91888 7.02274 9.01266 7.11652L18.5418 16.6456L19.5781 15.609L10.1959 6.22669L9.512 3.49267C9.46346 3.29879 9.33802 3.13294 9.16464 3.03374L4.03341 0.101911C3.74726 -0.0609176 3.38722 -0.012672 3.15384 0.219811L0.22201 3.15194C-0.013791 3.38382 -0.0650519 3.74446 0.0965709 4.03302Z" fill="white"/>
<path d="M30.5717 14.4462L14.4459 30.5723L13.4092 29.5356L29.5353 13.4099L30.5717 14.4462Z" fill="white"/>
<path fill-rule="evenodd" clip-rule="evenodd" d="M10.9948 30.7873C11.2523 30.7873 11.4906 30.9221 11.6232 31.1428L13.822 34.8077C13.9616 35.0398 13.9616 35.3302 13.822 35.5627L11.6232 39.2276C11.4906 39.448 11.2523 39.5831 10.9948 39.5831H6.59694C6.33973 39.5831 6.10122 39.448 5.96884 39.2276L3.76975 35.5627C3.63014 35.3302 3.63014 35.0398 3.76975 34.8077L5.96884 31.1428C6.10122 30.9221 6.33973 30.7873 6.59694 30.7873H10.9948ZM7.01185 38.117H10.5802L12.3394 35.1852L10.5802 32.2531H7.01185L5.2527 35.1852L7.01185 38.117Z" fill="white"/>
<path fill-rule="evenodd" clip-rule="evenodd" d="M43.9792 8.85697C43.9629 13.6981 40.0249 17.6096 35.1837 17.5933C34.6069 17.5915 34.0316 17.5318 33.4665 17.4151L29.6234 21.2582L31.3042 22.939C31.5903 23.2251 31.5903 23.6892 31.3042 23.9753L30.9375 24.342C30.9372 24.3426 30.9366 24.3429 30.936 24.3435C30.6158 24.6643 30.6167 25.1842 30.9375 25.5044C31.2592 25.8241 31.7785 25.8241 32.1002 25.5044L32.4666 25.1381C32.7527 24.8519 33.2168 24.8519 33.503 25.1381L42.2469 33.8817C42.2595 33.8943 42.2722 33.907 42.2846 33.9197C44.5844 36.2403 44.5675 39.9862 42.2469 42.2861C39.926 44.5859 36.1803 44.569 33.8805 42.2481L25.1366 33.5042C24.8504 33.218 24.8504 32.7539 25.1366 32.4678L25.5029 32.1014L25.5044 32.0999C25.8247 31.7788 25.8241 31.2589 25.5029 30.9387C25.1815 30.6194 24.662 30.6194 24.3405 30.9387L23.9741 31.3054C23.6877 31.5915 23.2239 31.5915 22.9375 31.3054L21.2567 29.6246L17.4137 33.4677C17.5303 34.0327 17.59 34.6081 17.5919 35.1852C17.5919 40.0429 13.6538 43.981 8.79608 43.981C3.93805 43.981 0 40.0429 0 35.1852C0 30.3272 3.93805 26.3891 8.79608 26.3891C9.37292 26.3912 9.94825 26.4506 10.5133 26.5673L26.5661 10.5148C26.4492 9.94974 26.3897 9.37441 26.3879 8.79727C26.3855 8.06243 26.4757 7.3303 26.6563 6.61808C27.8453 1.92348 32.6146 -0.918493 37.3095 0.27046C37.4395 0.302423 37.5583 0.369364 37.6527 0.463744C37.9391 0.749901 37.9394 1.21396 37.6533 1.50042L33.0905 6.06416L34.2978 9.68348L37.918 10.8899L42.4809 6.33011C42.5749 6.23633 42.6925 6.16969 42.8216 6.13743C43.2145 6.03973 43.6122 6.27885 43.7099 6.67175C43.8911 7.38609 43.9816 8.12002 43.9792 8.85697ZM36.5047 42.2309C37.0032 42.4181 37.5312 42.5143 38.0637 42.5152C38.5998 42.5158 39.1314 42.4193 39.6329 42.2309C41.9309 41.367 43.0933 38.8039 42.2294 36.5059L36.5047 42.2309ZM29.7597 23.4645C28.948 24.4328 29.0752 25.8759 30.0434 26.6873C30.8944 27.4005 32.1346 27.3999 32.9846 26.6852L41.2105 34.9184C41.2998 35.0079 41.3833 35.1023 41.4641 35.1982L35.197 41.4653C35.1008 41.3848 35.0064 41.3012 34.9169 41.2117L26.6847 32.9789C27.4964 32.0106 27.3691 30.5675 26.4009 29.7561C25.55 29.0426 24.3095 29.0435 23.4594 29.7579L22.2868 28.5852L28.5867 22.2946L29.7597 23.4645ZM16.0914 32.7171L32.7196 16.0923V16.092H32.7157C32.8978 15.9099 33.1622 15.8369 33.4122 15.8993C34.0153 16.0537 34.6358 16.1303 35.2585 16.1273C39.2861 16.1065 42.5342 12.8249 42.5137 8.79727C42.5137 8.65947 42.5092 8.52106 42.5005 8.38115L38.6339 12.2477C38.4376 12.4437 38.1472 12.5122 37.8843 12.4244L33.4861 10.9584C33.2672 10.8857 33.0953 10.7138 33.022 10.4952L31.5562 6.09702C31.4685 5.83378 31.5373 5.5434 31.7336 5.34741L35.6001 1.47931C34.8403 1.43197 34.0774 1.50434 33.3398 1.6928C29.4368 2.69179 27.0824 6.66542 28.0811 10.5685C28.1438 10.8182 28.0705 11.0826 27.8884 11.2647L11.2641 27.8899C11.0814 28.0711 10.8176 28.1444 10.5676 28.0832C9.37292 27.7792 8.12124 27.7792 6.92656 28.0832C2.97706 29.0888 0.590707 33.1055 1.59603 37.0547C2.60164 41.0042 6.61839 43.3906 10.5676 42.385C14.5171 41.3796 16.9035 37.3629 15.8978 33.4137C15.8357 33.1637 15.909 32.8993 16.0914 32.7171Z" fill="white"/>
<path d="M37.9015 36.8657L36.8649 37.9023L29.5352 30.5726L30.5715 29.5359L37.9015 36.8657Z" fill="white"/>
</svg>
