<svg width="19" height="19" viewBox="0 0 19 19" fill="none" xmlns="http://www.w3.org/2000/svg">
<path fill-rule="evenodd" clip-rule="evenodd" d="M8.70801 1.58333C12.641 1.58333 15.833 4.77533 15.833 8.70833C15.833 12.6413 12.641 15.8333 8.70801 15.8333C4.77501 15.8333 1.58301 12.6413 1.58301 8.70833C1.58301 4.77533 4.77501 1.58333 8.70801 1.58333ZM8.70801 14.25C11.7694 14.25 14.2497 11.7697 14.2497 8.70833C14.2497 5.64617 11.7694 3.16667 8.70801 3.16667C5.64584 3.16667 3.16634 5.64617 3.16634 8.70833C3.16634 11.7697 5.64584 14.25 8.70801 14.25ZM17.6649 16.545L15.4253 14.3062L14.3059 15.4256L16.5447 17.6652L17.6649 16.545Z" fill="black"/>
</svg>
