<svg width="12" height="16" viewBox="0 0 12 16" fill="none" xmlns="http://www.w3.org/2000/svg">
<path fill-rule="evenodd" clip-rule="evenodd" d="M0.791667 0H10.2917C10.7289 0 11.0833 0.354441 11.0833 0.791667V15.0417C11.0833 15.4789 10.7289 15.8333 10.2917 15.8333H0.791667C0.354441 15.8333 0 15.4789 0 15.0417V0.791667C0 0.354441 0.354441 0 0.791667 0ZM1.58333 1.58333V14.25H9.5V1.58333H1.58333ZM6.33333 12.6667C6.33333 12.2294 5.97889 11.875 5.54167 11.875C5.10444 11.875 4.75 12.2294 4.75 12.6667C4.75 13.1039 5.10444 13.4583 5.54167 13.4583C5.97889 13.4583 6.33333 13.1039 6.33333 12.6667Z" fill="black"/>
</svg>
