<svg width="44" height="48" viewBox="0 0 44 48" fill="none" xmlns="http://www.w3.org/2000/svg">
<path fill-rule="evenodd" clip-rule="evenodd" d="M0.387 36.2812C0.14775 36.1492 0 35.8972 0 35.625C0 35.3527 0.14775 35.1007 0.387 34.9687L9.702 29.8125L0.387 24.6562C0.14775 24.5242 0 24.2722 0 24C0 23.7277 0.14775 23.4765 0.387 23.3437L9.70125 18.1875L0.387 13.0312C0.14775 12.8992 0 12.6472 0 12.375C0 12.1027 0.14775 11.8507 0.38625 11.7187L21.3862 0.0937412C21.612 -0.0307588 21.8873 -0.0307588 22.113 0.0937412L43.113 11.7187C43.3522 11.8507 43.5 12.1027 43.5 12.375C43.5 12.6472 43.3522 12.8992 43.113 13.0312L33.7988 18.1875L43.113 23.3437C43.3522 23.4765 43.5 23.7277 43.5 24C43.5 24.2722 43.3522 24.5242 43.113 24.6562L33.798 29.8125L43.113 34.9687C43.3522 35.1007 43.5 35.3527 43.5 35.625C43.5 35.8972 43.3522 36.1492 43.113 36.2812L22.113 47.9062C22.0005 47.9685 21.8752 48 21.75 48C21.6248 48 21.4995 47.9685 21.387 47.9062L0.387 36.2812ZM11.2463 40.578L20.2013 35.625L16.5 33.5767L7.548 38.5312L11.2463 40.578ZM21.75 46.3927L18.0435 44.3407L37.497 33.5745L41.202 35.625L21.75 46.3927ZM16.494 43.4842L35.9475 32.7165L32.25 30.6705L22.113 36.282L12.7942 41.4367L16.494 43.4842ZM11.2463 7.42199L14.9482 9.47024L11.2485 11.517L7.54725 9.46874L11.2463 7.42199ZM20.1968 6.56474L16.494 4.51574L12.795 6.56324L16.497 8.61149L20.1968 6.56474ZM30.7005 6.56174L26.9948 8.61299L23.2943 6.56549L27.0008 4.51424L30.7005 6.56174ZM32.2425 11.517L35.9475 9.46649L32.2492 7.41974L28.5427 9.47024L32.2425 11.517ZM26.994 14.4217L23.2943 12.375L26.9948 10.3275L30.6938 12.375L26.994 14.4217ZM35.9468 15.2835L32.2417 13.233L28.5427 15.2797L32.2485 17.3302L35.9468 15.2835ZM25.4452 15.2797L21.7455 17.3272L18.045 15.2797L21.7455 13.2322L25.4452 15.2797ZM21.7455 11.517L25.4445 9.47024L21.7455 7.42274L18.045 9.47024L21.7455 11.517ZM16.497 10.3275L20.196 12.375L16.4963 14.4217L12.7972 12.375L16.497 10.3275ZM11.2455 17.328L14.9475 15.2797L11.2485 13.233L7.54725 15.2812L11.2455 17.328ZM16.4963 16.137L20.1968 18.1845L16.494 20.2335L12.7942 18.1852L16.4963 16.137ZM25.4513 21.0937L21.7455 19.0425L18.0435 21.0907L21.75 23.1427L25.4513 21.0937ZM27.0008 20.2357L23.2943 18.1845L26.9948 16.137L30.7005 18.1882L27.0008 20.2357ZM33.7912 12.375L37.4962 14.4255L41.2012 12.375L37.4962 10.3245L33.7912 12.375ZM21.75 1.60724L25.452 3.65624L21.7455 5.70749L18.0427 3.65924L21.75 1.60724ZM9.69975 12.375L5.9985 10.3267L2.298 12.375L5.9985 14.4232L9.69975 12.375ZM11.25 19.0447L21.387 24.6562C21.4995 24.7185 21.6248 24.75 21.75 24.75C21.8752 24.75 22.0005 24.7185 22.113 24.6562L32.25 19.0447L41.202 24L21.75 34.7677L2.298 24L11.25 19.0447ZM14.9513 32.7187L11.25 30.6705L2.298 35.625L5.9985 37.6732L14.9513 32.7187Z" fill="#EA2021"/>
</svg>
