<svg width="42" height="48" viewBox="0 0 42 48" fill="none" xmlns="http://www.w3.org/2000/svg">
<path fill-rule="evenodd" clip-rule="evenodd" d="M33.61 27.5557L40.609 39.8512C40.7982 40.135 40.7982 40.5133 40.5618 40.797C40.4199 41.0808 40.0888 41.27 39.7578 41.27H32.1913L28.7391 47.4177C28.5972 47.7015 28.2662 47.8906 27.9352 47.8906C27.6041 47.8906 27.3204 47.7015 27.1312 47.4177L20.3687 35.7369L13.6061 47.2759C13.4642 47.5596 13.1332 47.7488 12.8021 47.7488C12.4711 47.7488 12.1874 47.5596 11.9982 47.2759L8.54599 41.27H0.979487C0.648453 41.27 0.364709 41.0808 0.175546 40.797C0.0336743 40.5133 -0.0136163 40.135 0.175546 39.8512L7.22185 27.3665C6.41791 27.0355 5.89771 26.2315 5.99229 25.3803L6.60707 20.9823L3.62776 17.7665C2.96569 16.9626 3.01298 15.8276 3.67505 15.1655L6.65436 12.0443L6.13417 7.6936C6.03959 6.6532 6.70165 5.75468 7.69476 5.56552L11.9982 4.80887L14.1263 0.978325C14.3627 0.552709 14.7411 0.221675 15.214 0.079803C15.6869 -0.062069 16.2071 -0.0147783 16.6327 0.221675L20.5105 2.1133L24.4829 0.268966H24.5302C25.476 -0.10936 26.5164 0.268966 26.942 1.16749L29.0228 4.99803L33.3263 5.84926C34.2721 6.03842 34.9342 6.98424 34.8396 7.93005L34.2248 12.3281L37.2041 15.5438C37.8662 16.3478 37.8189 17.4828 37.1568 18.1448L34.1775 21.266L34.6977 25.6167C34.745 26.468 34.3194 27.2246 33.61 27.5557ZM9.91742 39.8512L12.8494 44.9113L19.2337 33.798L18.2879 32.1429L16.3489 33.0414H16.3017C15.3558 33.4197 14.3154 33.0414 13.8898 32.1429L11.809 28.3123L9.11348 27.8394L2.58737 39.3783H9.11348C9.44451 39.3783 9.72826 39.5675 9.91742 39.8512ZM15.5923 31.3389H15.545L13.4642 27.4138C13.1805 26.9409 12.7076 26.5626 12.1401 26.5153L7.78934 25.7113L8.40412 21.3606C8.4987 20.7931 8.30954 20.1783 7.93121 19.8L4.99919 16.5842L7.9785 13.4631C8.40412 13.0374 8.59328 12.47 8.4987 11.9025L7.9785 7.59901C7.9785 7.59901 7.9785 7.55172 8.02579 7.50443L12.3292 6.74778C12.8494 6.6532 13.3696 6.32217 13.6534 5.80197L15.7815 1.97143L19.6593 3.86305C20.1795 4.1468 20.8416 4.1468 21.3618 3.86305L25.2869 2.06601H25.3342L27.415 5.99113C27.6987 6.46404 28.1716 6.84236 28.6918 6.88966L32.9953 7.74089L32.3805 12.0916C32.2859 12.6591 32.4751 13.2739 32.8534 13.6522L35.8327 16.868L32.8061 19.9892C32.3805 20.4148 32.1913 20.9823 32.2859 21.5498L32.8061 25.9005L28.5499 26.6099C28.0297 26.7044 27.5095 27.0355 27.2258 27.5557L25.0977 31.3862L21.2199 29.4946C20.6997 29.2108 20.0376 29.2108 19.5174 29.4946L15.5923 31.3389ZM30.8672 39.8512C31.009 39.5675 31.3401 39.3783 31.6711 39.3783H38.1972L31.7184 27.9813L28.881 28.5015L26.7529 32.332C26.4219 32.9468 25.7598 33.2778 25.0977 33.2778C24.814 33.2778 24.5302 33.2305 24.2465 33.0887L20.3686 31.197L20.0376 31.3389L21.078 33.1833C21.1726 33.2778 21.2199 33.3724 21.2672 33.5143L27.9352 45.0532L30.8672 39.8512Z" fill="#EA2021"/>
<path fill-rule="evenodd" clip-rule="evenodd" d="M20.3683 7.2207C25.5703 7.2207 29.8264 11.4769 29.8264 16.6788C29.8264 21.8808 25.5703 26.137 20.3683 26.137C15.1663 26.137 10.9102 21.8808 10.9102 16.6788C10.9102 11.4769 15.1663 7.2207 20.3683 7.2207ZM12.8018 16.6788C12.8018 20.8404 16.2067 24.2453 20.3683 24.2453C24.5299 24.2453 27.9348 20.8404 27.9348 16.6788C27.9348 12.5173 24.5299 9.11233 20.3683 9.11233C16.2067 9.11233 12.8018 12.5173 12.8018 16.6788Z" fill="#EA2021"/>
</svg>
