<svg width="48" height="48" viewBox="0 0 48 48" fill="none" xmlns="http://www.w3.org/2000/svg">
<path fill-rule="evenodd" clip-rule="evenodd" d="M34.3996 48H13.5996V9.59998H34.3996V48ZM32.7996 11.2H15.1996V46.4H32.7996V11.2Z" fill="#EA2021"/>
<path fill-rule="evenodd" clip-rule="evenodd" d="M16.7998 12.8H23.1998V28.8H16.7998V12.8ZM18.3998 27.2H21.5998V14.4H18.3998V27.2Z" fill="#EA2021"/>
<path fill-rule="evenodd" clip-rule="evenodd" d="M31.1998 28.8H24.7998V12.8H31.1998V28.8ZM29.5998 14.4H26.3998V27.2H29.5998V14.4Z" fill="#EA2021"/>
<path d="M29.5996 30.4H31.1996V32H29.5996V30.4Z" fill="#EA2021"/>
<path fill-rule="evenodd" clip-rule="evenodd" d="M31.1998 44.8H16.7998V36.8H31.1998V44.8ZM29.5998 38.4H18.3998V43.2H29.5998V38.4Z" fill="#EA2021"/>
<path d="M20 33.6H28V35.2H20V33.6Z" fill="#EA2021"/>
<path fill-rule="evenodd" clip-rule="evenodd" d="M6.66741 27.2097C8.7678 27.3508 10.3994 29.0949 10.3998 31.2C10.3975 33.1 9.06116 34.7371 7.19983 35.1199V36.8H9.59983C10.0416 36.8 10.3998 37.1582 10.3998 37.6V40.8C10.3998 40.81 10.3981 40.8322 10.3965 40.8535C10.395 40.8729 10.3936 40.8915 10.3936 40.8992L9.59358 47.2992C9.54358 47.6996 9.20335 48 8.79983 48H3.99983C3.59631 48 3.25608 47.6996 3.20608 47.2992L2.40608 40.8992C2.39983 40.88 2.39983 40.8183 2.39983 40.8V37.6C2.39983 37.1582 2.75803 36.8 3.19983 36.8H5.59983V35.1199C3.53733 34.6988 2.15413 32.7515 2.43577 30.6656C2.71741 28.5797 4.56741 27.0687 6.66741 27.2097ZM4.10608 41.6L4.70608 46.4H8.09358L8.69358 41.6H4.10608ZM8.79983 38.4V40H3.99983V38.4H8.79983ZM6.39983 28.8C5.07444 28.8 3.99983 29.8746 3.99983 31.2C3.99983 32.5254 5.07444 33.6 6.39983 33.6C7.72522 33.6 8.79983 32.5254 8.79983 31.2C8.79983 29.8746 7.72522 28.8 6.39983 28.8Z" fill="#EA2021"/>
<path fill-rule="evenodd" clip-rule="evenodd" d="M41.8676 27.2097C43.968 27.3508 45.5996 29.0949 45.6 31.2C45.5977 33.1 44.2614 34.7371 42.4 35.1199V36.8H44.8C45.2418 36.8 45.6 37.1582 45.6 37.6V40.8C45.6 40.81 45.5983 40.8322 45.5967 40.8535C45.5952 40.8729 45.5938 40.8915 45.5938 40.8992L44.7938 47.2992C44.7438 47.6996 44.4035 48 44 48H39.2C38.7965 48 38.4563 47.6996 38.4063 47.2992L37.6063 40.8992C37.6039 40.88 37.6 40.8183 37.6 40.8V37.6C37.6 37.1582 37.9582 36.8 38.4 36.8H40.8V35.1199C38.7375 34.6988 37.3543 32.7515 37.636 30.6656C37.9176 28.5797 39.7676 27.0687 41.8676 27.2097ZM39.3063 41.6L39.9063 46.4H43.2938L43.8938 41.6H39.3063ZM44 38.4V40H39.2V38.4H44ZM41.6 28.8C40.2746 28.8 39.2 29.8746 39.2 31.2C39.2 32.5254 40.2746 33.6 41.6 33.6C42.9254 33.6 44 32.5254 44 31.2C44 29.8746 42.9254 28.8 41.6 28.8Z" fill="#EA2021"/>
<path fill-rule="evenodd" clip-rule="evenodd" d="M48 0H0V4.8H1.6V8H6.4V9.6H4.8C4.3582 9.6 4 9.9582 4 10.4V18.4C4 18.8418 4.3582 19.2 4.8 19.2H9.6C10.0418 19.2 10.4 18.8418 10.4 18.4V10.4C10.4 9.9582 10.0418 9.6 9.6 9.6H8V8H40V9.6H38.4C37.9582 9.6 37.6 9.9582 37.6 10.4V18.4C37.6 18.8418 37.9582 19.2 38.4 19.2H43.2C43.6418 19.2 44 18.8418 44 18.4V10.4C44 9.9582 43.6418 9.6 43.2 9.6H41.6V8H46.4V4.8H48V0ZM5.6 13.2879L8.18711 17.6H5.6V13.2879ZM6.21289 11.2L8.8 15.5121V11.2H6.21289ZM39.2 13.2879L41.7871 17.6H39.2V13.2879ZM39.8129 11.2L42.4 15.5121V11.2H39.8129ZM44.8 6.4H3.2V4.8H44.8V6.4ZM1.6 3.2H46.4V1.6H1.6V3.2Z" fill="#EA2021"/>
</svg>
