<svg width="41" height="48" viewBox="0 0 41 48" fill="none" xmlns="http://www.w3.org/2000/svg">
<path fill-rule="evenodd" clip-rule="evenodd" d="M0.898257 0H39.2184C39.6594 0 40.0168 0.357455 40.0168 0.798337V22.7199C40.0486 32.1032 34.7426 40.6883 26.3357 44.8562L20.4152 47.8204C20.304 47.8743 20.1819 47.9016 20.0583 47.9002C19.9348 47.9016 19.8127 47.8743 19.7015 47.8204L13.781 44.8601C5.37283 40.6916 0.0665896 32.1046 0.0999201 22.7199V0.798337C0.0999201 0.357455 0.457375 0 0.898257 0ZM25.622 43.4295C33.487 39.5303 38.4506 31.4983 38.4201 22.7199V1.59667H1.69659V22.7199C1.66616 31.4983 6.62972 39.5303 14.4947 43.4295L20.0583 46.2093L25.622 43.4295Z" fill="#EA2021"/>
<path fill-rule="evenodd" clip-rule="evenodd" d="M19.7014 44.2454L15.2092 41.9997C7.88724 38.3696 3.26587 30.8924 3.29321 22.7199V3.9917C3.29321 3.55081 3.65066 3.19336 4.09155 3.19336H36.025C36.4659 3.19336 36.8234 3.55081 36.8234 3.9917V22.7199C36.8507 30.8924 32.2294 38.3695 24.9074 41.9997L20.4151 44.2454C20.3045 44.3012 20.1822 44.3303 20.0583 44.3301C19.9343 44.3303 19.8121 44.3012 19.7014 44.2454ZM35.2267 4.79003H4.88988V22.7199C4.86444 30.2869 9.14332 37.2103 15.9229 40.5715L20.0583 42.6392L24.1937 40.5715C30.9732 37.2103 35.2521 30.2869 35.2267 22.7199V4.79003Z" fill="#EA2021"/>
<path fill-rule="evenodd" clip-rule="evenodd" d="M18.228 29.3045C18.0783 29.4542 17.8754 29.5385 17.6636 29.5385C17.452 29.5385 17.2489 29.4542 17.0992 29.3045L9.19565 21.401C8.884 21.0893 8.884 20.5839 9.19565 20.2722L11.4533 18.0137C11.7701 17.7142 12.2655 17.7142 12.5822 18.0137L17.6636 23.0951L28.3901 12.3694C28.7018 12.0578 29.2072 12.0578 29.5189 12.3694L31.7766 14.6271C32.0883 14.9389 32.0883 15.4442 31.7766 15.756L18.228 29.3045ZM17.0992 24.7883L12.0186 19.7077L10.8897 20.8366L17.6636 27.6113L30.0833 15.1915L28.9545 14.0627L18.228 24.7883C17.9163 25.1 17.4109 25.1 17.0992 24.7883Z" fill="#EA2021"/>
</svg>
