<svg width="34" height="44" viewBox="0 0 34 44" fill="none" xmlns="http://www.w3.org/2000/svg">
<path fill-rule="evenodd" clip-rule="evenodd" d="M0.733333 0H33C33.405 0 33.7333 0.328325 33.7333 0.733333V43.2667C33.7333 43.6717 33.405 44 33 44H0.733333C0.328325 44 0 43.6717 0 43.2667V0.733333C0 0.328325 0.328325 0 0.733333 0ZM4.4 42.5333H29.3333V41.0667H4.4V42.5333ZM29.3333 39.6H4.4V4.4H29.3333V39.6ZM30.8 42.5333H32.2667V1.46667H1.46667V42.5333H2.93333V3.66667C2.93333 3.26166 3.26166 2.93333 3.66667 2.93333H30.0667C30.4717 2.93333 30.8 3.26166 30.8 3.66667V42.5333Z" fill="white"/>
<path fill-rule="evenodd" clip-rule="evenodd" d="M10.2665 5.86621H23.4665C23.8715 5.86621 24.1999 6.19454 24.1999 6.59954V10.9995C24.1999 11.4046 23.8715 11.7329 23.4665 11.7329H10.2665C9.86153 11.7329 9.5332 11.4046 9.5332 10.9995V6.59954C9.5332 6.19454 9.86153 5.86621 10.2665 5.86621ZM10.9999 10.2662H22.7332V7.33288H10.9999V10.2662Z" fill="white"/>
<path fill-rule="evenodd" clip-rule="evenodd" d="M16.1329 21.9997H12.4663V19.0663C12.4663 18.6613 12.138 18.333 11.7329 18.333H7.33294C6.92793 18.333 6.59961 18.6613 6.59961 19.0663V27.133C6.59961 27.538 6.92793 27.8663 7.33294 27.8663H11.7329C12.138 27.8663 12.4663 27.538 12.4663 27.133V25.6663H16.1329C16.538 25.6663 16.8663 25.338 16.8663 24.933V22.733C16.8663 22.328 16.538 21.9997 16.1329 21.9997ZM10.9996 26.3997H8.06628V19.7997H10.9996V21.9997H10.6329C9.62042 21.9997 8.79961 22.8205 8.79961 23.833C8.79961 24.8455 9.62042 25.6663 10.6329 25.6663H10.9996V26.3997ZM10.6329 24.1997H15.3996V23.4663H10.6329C10.4304 23.4663 10.2663 23.6305 10.2663 23.833C10.2663 24.0355 10.4304 24.1997 10.6329 24.1997Z" fill="white"/>
<path d="M16.8671 14.6669C17.2721 14.6669 17.6005 14.3385 17.6005 13.9335C17.6005 13.5285 17.2721 13.2002 16.8671 13.2002C16.4621 13.2002 16.1338 13.5285 16.1338 13.9335C16.1338 14.3385 16.4621 14.6669 16.8671 14.6669Z" fill="white"/>
</svg>
