<svg width="46" height="45" viewBox="0 0 46 45" fill="none" xmlns="http://www.w3.org/2000/svg">
<path fill-rule="evenodd" clip-rule="evenodd" d="M13.1946 19.0684L13.1962 19.0402C13.2327 18.3683 13.0459 17.7032 12.6653 17.1486C11.5686 15.5492 11.5686 13.4398 12.6653 11.8399C13.0463 11.2853 13.2327 10.6202 13.1966 9.94831L13.195 9.92179C13.0857 8.0137 14.1546 6.22658 15.918 5.36979L15.9349 5.36176C16.5574 5.06397 17.0674 4.57328 17.3893 3.96244L17.3961 3.94998C18.2847 2.25851 20.1244 1.23213 22.0807 1.33581L22.1105 1.33742C22.821 1.3772 23.5263 1.19395 24.1275 0.813379C25.7864 -0.224252 27.8922 -0.224252 29.5511 0.813379H29.5519C30.1527 1.19435 30.858 1.37761 31.5681 1.33782L31.5982 1.33621C33.5542 1.23374 35.3943 2.25891 36.2833 3.95079L36.2925 3.96887C36.6144 4.5769 37.1228 5.06477 37.7433 5.36135L37.7593 5.36939C39.5244 6.22698 40.5933 8.0137 40.484 9.92179L40.4824 9.94992C40.4462 10.6218 40.6335 11.2865 41.0141 11.8411C42.1104 13.441 42.1104 15.55 41.0137 17.1494C40.6327 17.7044 40.4462 18.3695 40.4824 19.0414L40.484 19.068C40.5933 20.9761 39.5244 22.7628 37.7609 23.62L37.7465 23.6272C37.1228 23.925 36.612 24.4161 36.2893 25.0273L36.2849 25.0366C35.3943 26.7312 33.5542 27.7576 31.5982 27.6539L31.5685 27.6523C30.858 27.6125 30.1527 27.7958 29.5515 28.1768C27.8926 29.2144 25.7868 29.2144 24.1279 28.1768C23.5267 27.7958 22.8214 27.6125 22.1109 27.6523L22.0811 27.6539C20.122 27.7568 18.2843 26.7312 17.3957 25.0394L17.3885 25.0261C17.067 24.4165 16.5574 23.9262 15.9357 23.6288L15.9176 23.62C14.1542 22.7632 13.0857 20.9761 13.1946 19.0684ZM14.8398 9.85548C14.8961 10.8923 14.6079 11.9187 14.02 12.7747V12.7755C13.3091 13.8111 13.3087 15.1775 14.0188 16.2139C14.6063 17.0695 14.8949 18.0958 14.839 19.1327L14.8374 19.162C14.7659 20.4046 15.4724 21.5732 16.6366 22.1391L16.6519 22.1467C17.5902 22.5964 18.3586 23.3358 18.8433 24.2561L18.8517 24.2718C19.471 25.4135 20.6971 26.0919 21.9931 26.0095L22.0221 26.0083C22.1153 26.0031 22.2085 26.0006 22.3014 26.0006C23.2586 25.9998 24.1966 26.2715 25.0052 26.7839C26.1272 27.4856 27.5514 27.4856 28.6734 26.7839C29.5628 26.2209 30.606 25.9496 31.6569 26.0083L31.6855 26.0099C33.0008 26.0802 34.2353 25.3982 34.8261 24.2738L34.8321 24.2617C35.318 23.3382 36.0884 22.5964 37.0291 22.1455L37.0412 22.1399C38.2054 21.5736 38.9119 20.405 38.8408 19.162L38.8392 19.1343C38.7829 18.0974 39.071 17.0711 39.6586 16.2147C40.3695 15.1787 40.3699 13.8123 39.6594 12.7759C39.0714 11.9199 38.7829 10.8939 38.8392 9.85709L38.8408 9.82775C38.9119 8.58476 38.2054 7.41652 37.0416 6.85069L37.0279 6.84386C36.0892 6.39416 35.3204 5.65432 34.8349 4.73363L34.8241 4.71314C34.2353 3.59192 33.0048 2.91115 31.6851 2.98027L31.6561 2.98188C30.6056 3.04015 29.5628 2.76888 28.6738 2.20626C27.5514 1.5042 26.1272 1.5042 25.0048 2.20626C24.1158 2.76969 23.073 3.04055 22.0221 2.98147L21.9931 2.98027C20.6798 2.91034 19.4433 3.59192 18.8529 4.71635L18.8449 4.73162C18.3594 5.65351 17.5898 6.39456 16.6499 6.84466L16.6358 6.85149C15.4901 7.38879 14.7803 8.56306 14.8382 9.82735L14.8398 9.85548Z" fill="white"/>
<path d="M21.529 23.0039C21.9144 23.2446 22.422 23.1269 22.6627 22.7415L32.4125 7.12234C32.5716 6.87278 32.5849 6.55691 32.4467 6.29529C32.3084 6.03327 32.04 5.86609 31.7442 5.85685C31.4484 5.84761 31.1703 5.9979 31.016 6.25068L21.2666 21.8698C21.0259 22.2556 21.1432 22.7632 21.529 23.0039Z" fill="white"/>
<path fill-rule="evenodd" clip-rule="evenodd" d="M26.038 10.3906C26.038 12.676 24.4072 14.5355 22.4031 14.5355C20.3989 14.5355 18.7686 12.676 18.7686 10.3906C18.7686 8.10515 20.3989 6.24609 22.4031 6.24609C24.4072 6.24609 26.038 8.10515 26.038 10.3906ZM24.3919 10.3906C24.3919 9.01298 23.4998 7.89216 22.4031 7.89216C21.3068 7.89216 20.4146 9.01338 20.4146 10.3906C20.4146 11.7678 21.3068 12.8894 22.4031 12.8894C23.4998 12.8894 24.3919 11.7682 24.3919 10.3906Z" fill="white"/>
<path fill-rule="evenodd" clip-rule="evenodd" d="M31.2761 22.745C29.272 22.745 27.6416 20.886 27.6416 18.6006C27.6416 16.3147 29.272 14.4561 31.2765 14.4561C33.2807 14.4561 34.911 16.3159 34.911 18.6006C34.911 20.8856 33.2803 22.745 31.2761 22.745ZM31.2761 21.099C32.3728 21.099 33.265 19.9782 33.265 18.6006C33.265 17.2221 32.3728 16.1021 31.2761 16.1021C30.1798 16.1021 29.2877 17.2229 29.2877 18.6006C29.2877 19.9782 30.1798 21.099 31.2761 21.099Z" fill="white"/>
<path fill-rule="evenodd" clip-rule="evenodd" d="M44.2021 32.267C43.1122 30.3328 40.6953 29.5962 38.7121 30.5936L32.2649 33.6398C31.3747 31.9845 29.6672 30.9308 27.788 30.8778L21.8363 30.7138C20.894 30.6869 19.9692 30.4478 19.1313 30.0153L18.5257 29.7015C15.4249 28.0852 11.7289 28.0892 8.63126 29.7119L8.66903 28.3399C8.68149 27.8854 8.32343 27.5069 7.86891 27.4944L1.34252 27.3148C0.888008 27.3023 0.509848 27.6604 0.49739 28.1149L0.103154 42.4372C0.0906964 42.8917 0.448763 43.2703 0.90328 43.2827L7.42966 43.4623H7.45257C7.89825 43.4619 8.26274 43.1071 8.2752 42.6618L8.29369 41.9766L9.98918 41.0688C10.6547 40.7107 11.4331 40.6255 12.1601 40.8313L22.2844 43.6729C22.3021 43.6782 22.3198 43.6822 22.3379 43.6862C23.0697 43.8393 23.8156 43.9161 24.5634 43.9157C26.1468 43.9165 27.7117 43.5753 29.1508 42.9146C29.1862 42.8985 29.2203 42.88 29.2529 42.8591L43.9324 33.3633C44.2985 33.127 44.4167 32.646 44.2021 32.267ZM1.77132 41.6596L2.12014 28.9833L7.00127 29.1176L6.65204 41.7942L1.77132 41.6596ZM22.7024 42.0803C24.6241 42.4733 26.621 42.2507 28.4089 41.4437L42.2876 32.466C41.5164 31.7518 40.3819 31.5931 39.4439 32.0681L39.4246 32.0773L32.813 35.2019C32.8757 35.5539 32.9027 35.912 32.8926 36.2697C32.8802 36.7149 32.5157 37.0698 32.0704 37.0702H32.0471L22.2635 36.8009C21.809 36.7885 21.4509 36.4099 21.4634 35.9554C21.4759 35.5009 21.854 35.1428 22.3085 35.1553L31.1738 35.3992C30.8346 33.7612 29.4148 32.5708 27.743 32.523L21.7913 32.3591C20.6006 32.3249 19.4327 32.0231 18.3742 31.4765L17.7686 31.1627C14.8446 29.6392 11.3234 29.8269 8.57821 31.653L8.34593 40.0814L9.21236 39.6176C10.252 39.0586 11.4689 38.9252 12.605 39.2467L22.7024 42.0803Z" fill="white"/>
</svg>
