<svg width="39" height="44" viewBox="0 0 39 44" fill="none" xmlns="http://www.w3.org/2000/svg">
<path d="M23.293 15.4688C23.7673 15.4688 24.1523 15.0837 24.1523 14.6094C24.1523 14.135 23.7673 13.75 23.293 13.75C22.8176 13.75 22.4336 14.135 22.4336 14.6094C22.4336 15.0837 22.8176 15.4688 23.293 15.4688Z" fill="white"/>
<path d="M14.6992 15.4688C15.1736 15.4688 15.5586 15.0837 15.5586 14.6094C15.5586 14.135 15.1736 13.75 14.6992 13.75C14.2239 13.75 13.8398 14.135 13.8398 14.6094C13.8398 15.0837 14.2239 15.4688 14.6992 15.4688Z" fill="white"/>
<path d="M16.6992 21.3751C17.4206 21.7152 18.1937 21.8878 18.9964 21.8878C19.7816 21.8878 20.5395 21.7223 21.2495 21.396C21.6809 21.1976 21.8696 20.6873 21.6715 20.2559C21.4731 19.8249 20.9629 19.6359 20.5315 19.8343C20.0484 20.0562 19.5318 20.169 18.9964 20.169C18.4488 20.169 17.9225 20.0518 17.432 19.8206C17.0027 19.6181 16.4904 19.8021 16.2883 20.2314C16.0859 20.6608 16.2699 21.1727 16.6992 21.3751Z" fill="white"/>
<path fill-rule="evenodd" clip-rule="evenodd" d="M27.9542 26.2636C32.5673 26.4392 37.9491 30.1453 37.9491 34.8708V43.1406C37.9491 43.6153 37.5644 44 37.0898 44H0.902344C0.427673 44 0.0429688 43.6153 0.0429688 43.1406V34.8708C0.0429688 30.1355 5.43488 26.4389 10.0379 26.2636L12.4092 24.133C9.58002 22.0453 7.86328 18.6907 7.86328 15.125V9.45312C7.86328 4.22571 12.0641 0 17.2862 0H20.7237C25.9528 0 30.207 4.24081 30.207 9.45312V15.125C30.207 18.6968 28.4671 22.0577 25.6006 24.1491L27.9542 26.2636ZM20.8949 38.3281H17.0925L16.1653 42.2812H21.7959L20.8949 38.3281ZM20.9688 36.6094H17.0381L16.3788 34.5553L18.9966 33.2464L21.6703 34.5838L20.9688 36.6094ZM16.0099 25.887L18.9962 30.6642L21.9778 25.894C21.0131 26.1592 20.0127 26.2965 19.0049 26.2965C17.9875 26.2965 16.9797 26.1566 16.0099 25.887ZM20.2262 31.9399L24.3522 25.3378L26.5775 27.3372L23.7459 33.7003L20.2262 31.9399ZM20.7237 1.71875H17.2862C13.038 1.71875 9.58203 5.18814 9.58203 9.45312V10.0896L11.1135 7.84549C11.2585 7.63266 11.4915 7.49637 11.7479 7.47388C12.0041 7.45139 12.2575 7.54471 12.4374 7.729C14.1857 9.51556 16.2086 10.3125 18.9966 10.3125C21.7848 10.3125 23.8074 9.51556 25.5543 7.729C25.7336 7.54572 25.9847 7.45206 26.2405 7.47354C26.4959 7.49503 26.7286 7.6293 26.8746 7.83978L28.4883 10.1635V9.45312C28.4883 5.18814 25.0051 1.71875 20.7237 1.71875ZM9.58203 15.125V13.1387L11.9688 9.64111C13.8809 11.2675 16.1405 12.0312 18.9966 12.0312C21.8557 12.0312 24.1169 11.2659 26.0293 9.63608L28.4883 13.177V15.125C28.4883 20.2715 24.2817 24.5781 19.0049 24.5781C13.7453 24.5781 9.58203 20.2849 9.58203 15.125ZM17.7666 31.9399L13.6399 25.3381L11.4146 27.3372L14.2462 33.7003L17.7666 31.9399ZM1.76172 34.8708C1.76172 31.3306 6.06531 28.2738 9.82608 27.9958L13.0414 35.2203C13.1367 35.4344 13.3156 35.6006 13.5365 35.6798C13.7574 35.7591 14.0008 35.7443 14.2109 35.6396L14.8232 35.3331L15.5204 37.5043L14.3999 42.2812H1.76172V34.8708ZM23.5586 42.2812H36.2304V34.8708C36.2304 31.3306 31.9268 28.2741 28.166 27.9958L24.9507 35.2203C24.8554 35.4344 24.6765 35.6006 24.4556 35.6798C24.2367 35.7584 23.9927 35.7453 23.7812 35.6396L23.2206 35.3589L22.473 37.5174L23.5586 42.2812Z" fill="white"/>
<path d="M30.168 38.3281H26.7305C26.2558 38.3281 25.8711 38.7128 25.8711 39.1875C25.8711 39.6622 26.2558 40.0469 26.7305 40.0469H30.168C30.6426 40.0469 31.0273 39.6622 31.0273 39.1875C31.0273 38.7128 30.6426 38.3281 30.168 38.3281Z" fill="white"/>
<path d="M33.5586 38.3281C34.0329 38.3281 34.418 38.7132 34.418 39.1875C34.418 39.6618 34.0329 40.0469 33.5586 40.0469C33.0843 40.0469 32.6992 39.6618 32.6992 39.1875C32.6992 38.7132 33.0843 38.3281 33.5586 38.3281Z" fill="white"/>
</svg>
