<svg width="37" height="44" viewBox="0 0 37 44" fill="none" xmlns="http://www.w3.org/2000/svg">
<path d="M18.047 3.43848C17.5711 3.43848 17.1885 3.82176 17.1885 4.29699C17.1885 4.73931 17.5212 5.10738 17.9611 5.15104C18.4702 5.20157 18.9055 4.80497 18.9055 4.29699C18.9055 3.82107 18.5222 3.43848 18.047 3.43848Z" fill="white"/>
<path fill-rule="evenodd" clip-rule="evenodd" d="M30.9375 0.859375C30.9375 3.22867 32.8651 5.15625 35.2344 5.15625C35.7089 5.15625 36.0938 5.54108 36.0938 6.01562V20.0398C36.0938 31.2081 28.7388 40.8305 18.2938 43.9637C18.2133 43.9879 18.1301 44 18.0469 44C17.9637 44 17.8806 43.9879 17.8001 43.9638C7.12379 40.7623 0 30.969 0 20.0398V6.01562C0 5.54108 0.384828 5.15625 0.859375 5.15625C3.22867 5.15625 5.15625 3.22867 5.15625 0.859375C5.15625 0.384828 5.54108 0 6.01562 0H30.0781C30.5527 0 30.9375 0.384828 30.9375 0.859375ZM18.0469 42.242C27.8248 39.1945 34.375 30.3048 34.375 20.0398V6.81381C31.7444 6.43586 29.6579 4.34938 29.2799 1.71875H6.81381C6.43586 4.34938 4.34938 6.43586 1.71875 6.81381V20.0398C1.71875 30.2486 8.34694 39.2189 18.0469 42.242Z" fill="white"/>
<path d="M32.1417 7.94836C30.3495 7.16349 28.9303 5.74423 28.1454 3.95209C28.0084 3.63945 27.6995 3.4375 27.3582 3.4375H21.4827C21.0081 3.4375 20.6233 3.82233 20.6233 4.29688C20.6233 4.77142 21.0081 5.15625 21.4827 5.15625H26.8148C27.7228 6.93352 29.1602 8.37091 30.9375 9.27893V20.0398C30.9375 28.4499 25.8888 35.7064 18.0469 38.6112C10.205 35.7063 5.15625 28.4499 5.15625 20.0398V9.27893C6.93352 8.37091 8.37091 6.93352 9.27893 5.15625H14.6111C15.0856 5.15625 15.4705 4.77142 15.4705 4.29688C15.4705 3.82233 15.0856 3.4375 14.6111 3.4375H8.73555C8.3942 3.4375 8.08534 3.63954 7.94836 3.95209C7.16349 5.74423 5.74423 7.16349 3.95209 7.94836C3.63954 8.08534 3.4375 8.39429 3.4375 8.73555V20.0398C3.4375 29.2534 9.1361 37.2834 17.7602 40.3353C17.8529 40.3681 17.9499 40.3845 18.0469 40.3845C18.1439 40.3845 18.2408 40.3681 18.3336 40.3353C26.9504 37.286 32.6562 29.2609 32.6562 20.0398V8.73555C32.6562 8.3942 32.4542 8.08534 32.1417 7.94836Z" fill="white"/>
<path fill-rule="evenodd" clip-rule="evenodd" d="M10.3125 20.2812C10.3125 16.0165 13.7821 12.5469 18.0469 12.5469C22.3116 12.5469 25.7812 16.0165 25.7812 20.2812C25.7812 24.546 22.3116 28.0156 18.0469 28.0156C13.7821 28.0156 10.3125 24.546 10.3125 20.2812ZM12.0312 20.2812C12.0312 23.5983 14.7299 26.2969 18.0469 26.2969C21.3639 26.2969 24.0625 23.5983 24.0625 20.2812C24.0625 16.9642 21.3639 14.2656 18.0469 14.2656C14.7299 14.2656 12.0312 16.9642 12.0312 20.2812Z" fill="white"/>
<path d="M22.0921 17.9548C21.7564 17.6192 21.2124 17.6192 20.8767 17.9548L17.1876 21.644L16.0765 20.533C15.7408 20.1975 15.1968 20.1975 14.8611 20.533C14.5255 20.8685 14.5255 21.4127 14.8611 21.7484L16.5798 23.4671C16.7477 23.6348 16.9676 23.7188 17.1876 23.7188C17.4076 23.7188 17.6274 23.6348 17.7952 23.467L22.0921 19.1702C22.4277 18.8346 22.4277 18.2904 22.0921 17.9548Z" fill="white"/>
</svg>
