<svg width="15" height="15" viewBox="0 0 15 15" fill="none" xmlns="http://www.w3.org/2000/svg">
<path id="WhatsApp_1_ Copy 6" fill-rule="evenodd" clip-rule="evenodd" d="M5.40398 3.80965C5.25855 3.46137 5.14828 3.44812 4.92797 3.43922C4.85297 3.43488 4.76941 3.43055 4.67672 3.43055C4.39008 3.43055 4.09043 3.51434 3.90961 3.69949C3.6893 3.92437 3.14262 4.44902 3.14262 5.5248C3.14262 6.6007 3.92719 7.64121 4.03301 7.78687C4.14328 7.93219 5.56266 10.1721 7.7666 11.085C9.49008 11.7993 10.0015 11.733 10.3937 11.6494C10.9668 11.526 11.6852 11.1025 11.8661 10.5912C12.0468 10.0796 12.0468 9.64312 11.9938 9.55055C11.9409 9.45797 11.7954 9.40523 11.5751 9.29484C11.3548 9.18457 10.2836 8.65547 10.0808 8.58492C9.88242 8.51004 9.69293 8.53652 9.54316 8.74816C9.33152 9.04359 9.12445 9.34348 8.95687 9.52418C8.82469 9.66527 8.60859 9.68297 8.42789 9.60797C8.18543 9.50672 7.50668 9.26836 6.66914 8.52328C6.02109 7.94578 5.58035 7.22719 5.45262 7.01109C5.32477 6.79066 5.43937 6.6627 5.54074 6.54375C5.65102 6.40699 5.75672 6.31008 5.86687 6.18211C5.97715 6.05426 6.03879 5.98816 6.10934 5.83816C6.18434 5.69273 6.13137 5.54273 6.07852 5.43246C6.02555 5.32195 5.5848 4.24605 5.40398 3.80965ZM7.49777 0C3.36316 0 0 3.3641 0 7.49988C0 9.14004 0.528984 10.6613 1.42816 11.8958L0.493594 14.6824L3.37641 13.7611C4.56211 14.5459 5.97703 15 7.50223 15C11.6368 15 15 11.6357 15 7.50012C15 3.36434 11.6368 0.000234375 7.50223 0.000234375H7.49789V0H7.49777Z" fill="#14122E"/>
</svg>
